<?xml version="1.0" encoding="UTF-8"?>
<!DOCTYPE svg PUBLIC "-//W3C//DTD SVG 1.1//EN" "http://www.w3.org/Graphics/SVG/1.1/DTD/svg11.dtd">
<!-- Creator: CorelDRAW 2018 (64 Bit) -->
<svg xmlns="http://www.w3.org/2000/svg" xml:space="preserve" width="118px" height="40px" version="1.1" style="shape-rendering:geometricPrecision; text-rendering:geometricPrecision; image-rendering:optimizeQuality; fill-rule:evenodd; clip-rule:evenodd"
viewBox="0 0 55.4 18.73"
 xmlns:xlink="http://www.w3.org/1999/xlink">
 <defs>
  <style type="text/css">
   <![CDATA[
    .fil1 {fill:#EC268F}
    .fil2 {fill:#1FA9AD}
    .fil0 {fill:#FEFEFE;fill-rule:nonzero}
   ]]>
  </style>
 </defs>
 <g id="Capa_x0020_1">
  <metadata id="CorelCorpID_0Corel-Layer"/>
  <g id="_1412899073952">
   <path class="fil0" d="M26.33 10.56c0.02,0.45 -0.07,0.83 -0.28,1.16 -0.22,0.32 -0.5,0.58 -0.86,0.79 -0.36,0.21 -0.76,0.37 -1.22,0.47 -0.46,0.09 -0.92,0.14 -1.39,0.14 -0.38,0 -0.79,-0.06 -1.23,-0.2 -0.43,-0.13 -0.84,-0.34 -1.21,-0.64 -0.37,-0.3 -0.68,-0.69 -0.93,-1.17 -0.25,-0.48 -0.37,-1.07 -0.37,-1.77 0,-0.47 0.06,-0.89 0.16,-1.25 0.11,-0.37 0.26,-0.69 0.45,-0.97 0.18,-0.29 0.4,-0.53 0.65,-0.72 0.25,-0.2 0.52,-0.36 0.8,-0.48 0.28,-0.13 0.58,-0.22 0.88,-0.28 0.31,-0.06 0.61,-0.08 0.9,-0.08 0.35,0 0.72,0.02 1.12,0.06 0.34,0.03 0.72,0.08 1.15,0.15 0.43,0.07 0.88,0.16 1.34,0.28l-0.38 2.33c-0.11,-0.09 -0.26,-0.18 -0.46,-0.28 -0.2,-0.1 -0.43,-0.19 -0.69,-0.27 -0.26,-0.08 -0.54,-0.15 -0.83,-0.21 -0.3,-0.05 -0.59,-0.08 -0.89,-0.09 -0.29,-0.01 -0.58,0.01 -0.86,0.06 -0.27,0.06 -0.52,0.16 -0.74,0.3 -0.23,0.13 -0.41,0.32 -0.55,0.56 -0.15,0.24 -0.24,0.54 -0.28,0.9 -0.05,0.53 0,0.97 0.13,1.3 0.14,0.33 0.33,0.59 0.57,0.77 0.24,0.17 0.51,0.29 0.81,0.33 0.31,0.05 0.6,0.05 0.88,0.02 0.29,-0.04 0.54,-0.11 0.76,-0.21 0.22,-0.09 0.37,-0.2 0.45,-0.31 0.14,-0.22 0.18,-0.39 0.12,-0.51 -0.02,-0.05 -0.07,-0.09 -0.14,-0.12 -0.07,-0.04 -0.18,-0.05 -0.31,-0.05 -0.14,0 -0.32,0.02 -0.53,0.06 -0.22,0.04 -0.48,0.11 -0.8,0.2l-0.31 -1.93c0.49,-0.13 0.93,-0.2 1.3,-0.22 0.38,-0.01 0.71,0 1,0.06 0.28,0.05 0.52,0.14 0.72,0.25 0.19,0.11 0.36,0.23 0.49,0.37 0.31,0.31 0.5,0.71 0.58,1.2zm5.8 -1.05c-0.51,-0.14 -0.98,-0.19 -1.4,-0.15 -0.43,0.03 -0.79,0.11 -1.09,0.21 -0.36,0.12 -0.67,0.29 -0.95,0.5 0.04,0.44 0.11,0.9 0.21,1.37 0.11,0.47 0.26,0.94 0.46,1.4l-1.97 0.28c-0.13,-0.45 -0.21,-0.87 -0.27,-1.26 -0.06,-0.38 -0.09,-0.71 -0.11,-0.99 -0.03,-0.32 -0.03,-0.62 -0.02,-0.88 0.02,-0.26 0.05,-0.54 0.08,-0.84 0.03,-0.26 0.08,-0.56 0.14,-0.9 0.06,-0.34 0.14,-0.7 0.24,-1.08l1.29 0.27c-0.01,0.08 -0.02,0.18 -0.03,0.28 -0.01,0.1 -0.02,0.2 -0.03,0.28 -0.01,0.11 -0.02,0.21 -0.02,0.31 0.18,-0.16 0.39,-0.31 0.64,-0.47 0.24,-0.15 0.53,-0.27 0.84,-0.37 0.32,-0.09 0.67,-0.14 1.05,-0.15 0.38,-0.01 0.8,0.04 1.26,0.15l-0.32 2.04zm6.93 0.61c0,0.45 -0.05,0.84 -0.15,1.16 -0.11,0.33 -0.25,0.6 -0.42,0.82 -0.16,0.22 -0.35,0.4 -0.56,0.53 -0.21,0.13 -0.42,0.23 -0.64,0.31 -0.21,0.07 -0.41,0.12 -0.6,0.14 -0.19,0.02 -0.35,0.03 -0.48,0.03 -0.13,0 -0.29,0 -0.49,-0.01 -0.2,-0.02 -0.41,-0.05 -0.64,-0.09 -0.22,-0.05 -0.43,-0.12 -0.65,-0.21 -0.22,-0.08 -0.4,-0.21 -0.56,-0.36 -0.16,-0.15 -0.28,-0.34 -0.36,-0.57 -0.08,-0.22 -0.09,-0.49 -0.03,-0.81 0.05,-0.29 0.15,-0.53 0.29,-0.72 0.14,-0.2 0.32,-0.36 0.52,-0.49 0.2,-0.12 0.43,-0.21 0.67,-0.27 0.24,-0.05 0.48,-0.07 0.72,-0.07 0.15,0 0.31,0.02 0.47,0.05 0.13,0.03 0.28,0.07 0.45,0.13 0.16,0.05 0.33,0.12 0.49,0.22l-0.33 1.38c-0.26,-0.14 -0.49,-0.24 -0.7,-0.31 -0.2,-0.07 -0.38,-0.11 -0.53,-0.13 -0.15,-0.02 -0.28,-0.02 -0.38,0 -0.11,0.02 -0.19,0.05 -0.27,0.1 -0.16,0.1 -0.27,0.26 -0.31,0.48 -0.01,0.09 0.04,0.18 0.15,0.26 0.1,0.08 0.24,0.15 0.41,0.21 0.17,0.05 0.37,0.09 0.59,0.11 0.22,0.02 0.43,0.02 0.65,-0.02 0.21,-0.03 0.42,-0.09 0.61,-0.19 0.19,-0.09 0.34,-0.22 0.47,-0.39 0.12,-0.18 0.2,-0.39 0.22,-0.64 0.03,-0.26 -0.01,-0.57 -0.11,-0.93 -0.16,-0.4 -0.42,-0.69 -0.77,-0.87 -0.15,-0.08 -0.32,-0.14 -0.53,-0.18 -0.21,-0.03 -0.46,-0.04 -0.73,0 -0.28,0.03 -0.59,0.1 -0.94,0.22 -0.35,0.12 -0.75,0.3 -1.19,0.54l-0.29 -1.63c0.36,-0.17 0.71,-0.3 1.03,-0.4 0.32,-0.11 0.61,-0.18 0.86,-0.23 0.3,-0.06 0.57,-0.1 0.81,-0.13 0.19,-0.01 0.41,-0.01 0.64,0.01 0.23,0.01 0.47,0.05 0.71,0.12 0.24,0.08 0.48,0.18 0.71,0.31 0.23,0.13 0.43,0.31 0.61,0.54 0.17,0.22 0.31,0.49 0.42,0.82 0.11,0.33 0.16,0.71 0.16,1.16zm6.35 -0.81c-0.23,-0.05 -0.48,-0.08 -0.75,-0.1 -0.27,-0.02 -0.52,-0.03 -0.75,-0.03 -0.27,0 -0.54,0.01 -0.81,0.02 0.01,0.37 0.04,0.75 0.1,1.15 0.05,0.35 0.12,0.73 0.21,1.15 0.08,0.42 0.21,0.85 0.38,1.27l-2.16 0.35c-0.14,-0.42 -0.25,-0.85 -0.31,-1.28 -0.07,-0.43 -0.11,-0.82 -0.13,-1.17 -0.02,-0.41 -0.02,-0.81 0,-1.18 -0.2,0.05 -0.4,0.1 -0.61,0.16 -0.21,0.06 -0.43,0.14 -0.64,0.22l-0.26 -1.98c0.14,-0.07 0.32,-0.12 0.54,-0.17 0.22,-0.05 0.43,-0.09 0.63,-0.12 0.24,-0.03 0.49,-0.05 0.74,-0.08 0.03,-0.06 0.05,-0.12 0.07,-0.17 0.02,-0.06 0.04,-0.12 0.07,-0.18 0.2,-0.37 0.47,-0.69 0.82,-0.95 0.15,-0.11 0.32,-0.22 0.52,-0.31 0.19,-0.1 0.42,-0.18 0.67,-0.24 0.25,-0.07 0.52,-0.1 0.83,-0.12 0.31,-0.01 0.65,0.01 1.02,0.06l-0.28 1.42c-0.31,-0.07 -0.59,-0.08 -0.82,-0.03 -0.23,0.04 -0.42,0.1 -0.58,0.17 -0.19,0.09 -0.34,0.2 -0.46,0.33 0.3,0.03 0.59,0.06 0.86,0.1 0.24,0.04 0.48,0.09 0.72,0.15 0.25,0.06 0.45,0.14 0.6,0.24l-0.22 1.32zm2.05 -1.8c-0.2,-0.06 -0.37,-0.15 -0.5,-0.27 -0.13,-0.12 -0.22,-0.25 -0.27,-0.4 -0.06,-0.14 -0.08,-0.29 -0.06,-0.44 0.01,-0.15 0.06,-0.29 0.15,-0.41 0.08,-0.12 0.21,-0.22 0.36,-0.3 0.16,-0.08 0.35,-0.12 0.58,-0.12 0.33,0 0.6,0.07 0.79,0.19 0.2,0.12 0.34,0.27 0.42,0.45 0.09,0.17 0.11,0.36 0.08,0.55 -0.03,0.19 -0.11,0.36 -0.24,0.5 -0.13,0.14 -0.3,0.25 -0.52,0.31 -0.23,0.06 -0.49,0.04 -0.79,-0.06zm-0.72 5.6c-0.12,-0.3 -0.22,-0.61 -0.29,-0.92 -0.06,-0.31 -0.11,-0.62 -0.14,-0.93 -0.03,-0.31 -0.04,-0.61 -0.03,-0.9 0.01,-0.29 0.03,-0.57 0.06,-0.83 0.07,-0.61 0.19,-1.19 0.36,-1.76l2.1 0.31c-0.14,0.21 -0.25,0.44 -0.33,0.7 -0.09,0.25 -0.16,0.51 -0.21,0.79 -0.05,0.27 -0.09,0.54 -0.1,0.82 -0.02,0.28 -0.03,0.55 -0.03,0.8 0.01,0.61 0.06,1.24 0.15,1.87l-1.54 0.05zm5.82 0.06c-0.4,-0.04 -0.78,-0.13 -1.15,-0.26 -0.37,-0.14 -0.69,-0.34 -0.97,-0.6 -0.28,-0.26 -0.49,-0.58 -0.64,-0.96 -0.14,-0.39 -0.19,-0.85 -0.13,-1.38 0.05,-0.53 0.17,-0.97 0.36,-1.31 0.18,-0.35 0.4,-0.62 0.65,-0.83 0.25,-0.2 0.51,-0.34 0.8,-0.43 0.29,-0.09 0.55,-0.15 0.81,-0.17 0.26,-0.02 0.54,-0.01 0.85,0.02 0.26,0.03 0.57,0.09 0.91,0.18 0.35,0.09 0.72,0.23 1.11,0.42l-0.61 1.75c-0.2,-0.22 -0.42,-0.38 -0.64,-0.5 -0.22,-0.11 -0.43,-0.19 -0.62,-0.25 -0.22,-0.07 -0.44,-0.1 -0.65,-0.11 -0.24,0 -0.46,0.02 -0.67,0.05 -0.2,0.04 -0.38,0.11 -0.54,0.21 -0.15,0.1 -0.29,0.24 -0.4,0.42 -0.11,0.18 -0.19,0.41 -0.23,0.69 -0.03,0.2 -0.01,0.39 0.06,0.57 0.06,0.18 0.18,0.35 0.33,0.49 0.16,0.14 0.37,0.26 0.62,0.35 0.25,0.1 0.55,0.16 0.88,0.18 0.21,0.01 0.43,0 0.66,-0.05 0.24,-0.04 0.47,-0.1 0.7,-0.18 0.23,-0.07 0.44,-0.15 0.63,-0.23 0.2,-0.08 0.35,-0.15 0.48,-0.2l0.24 1.7c-0.35,0.15 -0.7,0.25 -1.03,0.31 -0.34,0.06 -0.64,0.1 -0.91,0.12 -0.31,0.02 -0.61,0.02 -0.9,0z"/>
   <path class="fil1" d="M47.89 4.96c0.74,0 1.34,0.6 1.34,1.35 0,0.74 -0.6,1.35 -1.34,1.35 -0.75,0 -1.35,-0.61 -1.35,-1.35 0,-0.75 0.6,-1.35 1.35,-1.35z"/>
   <path class="fil2" d="M1.69 9.32c-0.48,-0.51 -0.78,-1.2 -0.78,-1.96l0 -4.48c0,-1.59 1.29,-2.88 2.88,-2.88l8.22 0c4.77,0 7.47,4.94 4.84,8.94 -0.07,0.11 -0.16,0.22 -0.24,0.32 0.63,0.53 1.04,1.33 1.04,2.22l0 4.37c0,1.57 -1.26,2.86 -2.85,2.88l-9.22 0c-4.89,0 -7.29,-5.35 -4.2,-9.08 0.07,-0.1 0.16,-0.18 0.24,-0.27l0.07 -0.06zm8.59 8.14l4.52 0c0.87,-0.01 1.58,-0.73 1.58,-1.61l0 -4.37c0,-0.89 -0.72,-1.61 -1.6,-1.61l-0.66 0 1.43 -1.34c0.09,-0.09 0.17,-0.18 0.24,-0.29 2.08,-3.16 -0.01,-6.97 -3.78,-6.97l-1.73 0 -6.49 0c-0.89,0 -1.61,0.72 -1.61,1.61l0 4.48c0,0.88 0.72,1.61 1.61,1.61l0.13 0 -1.43 1.34c-0.05,0.04 -0.09,0.09 -0.14,0.15 -2.4,2.9 -0.59,7 3.23,7l4.69 0 0.01 0z"/>
   <path class="fil2" d="M10.07 11.48l4.71 0 0 4.37 -9.2 0c-2.52,0 -3.5,-2.55 -1.99,-4.37l4.38 -4.12 -4.18 0 0 -4.49 8.22 0c2.55,0 3.8,2.42 2.44,4.49l-4.38 4.12z"/>
  </g>
 </g>
</svg>
